<svg width="85" height="94" viewBox="0 0 85 94" fill="none" xmlns="http://www.w3.org/2000/svg">
<path d="M42.4579 0.803711C55.8146 0.803711 66.2032 5.00859 73.6235 13.4184C81.0439 21.8281 84.7541 32.7114 84.7541 46.1917C84.7541 59.7958 81.0439 71.05 73.7472 79.8308C66.3268 88.7353 55.9383 93.0638 42.5816 93.0638C35.6559 93.0638 29.5959 91.8271 24.1543 89.3536C18.7127 86.8802 14.2605 83.541 10.7976 79.0888C7.3348 74.7602 4.73767 69.8133 3.00624 64.1243C1.27482 58.559 0.409119 52.4991 0.409119 45.9444C0.409119 32.2167 4.11931 21.2098 11.787 13.0473C19.4548 4.88492 29.5959 0.803711 42.4579 0.803711ZM42.4579 10.9449C32.5641 10.9449 25.0201 14.4078 19.8258 21.3334C14.6315 28.2591 11.9107 36.6689 11.9107 46.8101C11.9107 57.9407 14.7552 66.7215 20.3205 73.2761C25.8858 79.8308 33.3061 83.0463 42.5816 83.0463C51.8571 83.0463 59.2775 79.8308 64.8427 73.1525C70.2844 66.5978 73.1289 57.817 73.1289 46.8101C73.1289 35.9269 70.2844 27.2697 64.7191 20.7151C59.1538 14.2841 51.7334 10.9449 42.4579 10.9449Z" fill="white"/>
</svg>
