<svg width="73" height="89" viewBox="0 0 73 89" fill="none" xmlns="http://www.w3.org/2000/svg">
<path d="M0.626923 0.90625H39.3366C59.0006 0.90625 68.8944 9.06867 68.8944 25.2698C68.8944 30.4641 67.4103 34.9163 64.6895 38.8739C61.9687 42.8314 58.2585 45.4286 53.8063 46.6653C56.7745 47.4073 59.1243 48.273 60.9793 49.5098C62.7108 50.7465 64.0712 52.4779 64.9369 54.704C65.6789 56.9302 66.2973 58.9089 66.5446 60.6403C66.792 62.3718 66.9157 64.9689 67.163 68.3081C67.163 68.6791 67.163 69.5448 67.2867 70.7815C67.2867 72.0183 67.4104 72.884 67.4104 73.3787C67.4104 73.8734 67.4103 74.6154 67.534 75.7285C67.6577 76.9652 67.7814 77.8309 67.905 78.3256C67.905 78.944 68.0287 79.686 68.2761 80.6754C68.3997 81.6648 68.6471 82.5305 68.8944 83.1488C69.1418 83.7672 69.3891 84.5092 69.7601 85.2513C70.0075 85.9933 70.3785 86.7354 70.8732 87.3537C71.2442 87.9721 71.7389 88.4668 72.2336 88.9615H58.8769C58.2586 88.2194 57.7639 87.1064 57.3929 85.8696C57.0218 84.6329 56.7745 83.2725 56.6508 81.5411C56.4034 79.8097 56.2798 78.4493 56.2798 77.4599C56.1561 76.4705 56.0325 74.8627 56.0325 72.884C55.9088 70.9052 55.9088 69.7922 55.9088 69.5448C55.4141 62.1244 53.93 57.0538 51.2092 54.5804C48.4884 52.1069 43.2941 50.8702 35.379 50.8702H12.2522V88.9615H0.626923V0.90625ZM12.2522 10.8001V41.5947H34.1423C36.8631 41.5947 39.0892 41.5947 40.9443 41.3473C42.7994 41.2237 44.9019 40.8526 47.128 40.2343C49.3541 39.7396 51.0855 38.8739 52.4459 37.7608C53.8063 36.7714 54.9194 35.1637 55.9088 33.1849C56.7745 31.2062 57.2692 28.8564 57.2692 26.0119C57.2692 20.0756 55.4141 16.118 51.8276 14.0156C48.2411 11.9132 43.4178 10.8001 37.2341 10.8001H12.2522Z" fill="white"/>
</svg>
