<svg width="72" height="92" viewBox="0 0 72 92" fill="none" xmlns="http://www.w3.org/2000/svg">
<path d="M67.8609 27.7534L56.483 27.8771C55.2463 15.8808 47.9496 9.94449 34.5929 9.94449C28.2855 9.94449 23.3386 11.1812 19.8758 13.7783C16.4129 16.2518 14.6815 19.8383 14.6815 24.5379C14.6815 26.1457 14.9289 27.6297 15.4235 28.8665C15.9182 30.1032 16.784 31.0926 18.0207 32.082C19.2574 33.0714 20.3705 33.8134 21.3599 34.5554C22.4729 35.1738 24.2043 35.7922 26.4304 36.4105C28.7802 37.1526 30.6353 37.6473 31.9957 37.8946C33.4798 38.1419 35.5822 38.6366 38.5504 39.255C42.2606 39.997 45.2287 40.7391 47.5785 41.3574C50.052 41.9758 52.8965 42.9652 56.112 44.3256C59.4511 45.8097 62.0483 47.2938 64.027 49.0252C66.0058 50.7566 67.6136 52.9827 69.0976 55.7035C70.5817 58.548 71.2001 61.7635 71.2001 65.2264C71.2001 71.41 69.4686 76.6043 66.0058 80.8092C62.543 85.014 58.3381 87.8585 53.3912 89.4663C48.4442 91.1977 43.0026 91.9397 36.9427 91.9397C25.9358 91.9397 17.155 89.3426 10.4766 84.1483C3.79829 78.9541 0.459122 71.1627 0.459122 60.8978H11.7134C11.9607 68.4418 14.5578 73.8835 19.2574 77.3463C24.0807 80.8092 30.2643 82.5406 37.932 82.5406C43.992 82.5406 49.1863 81.1802 53.5148 78.7067C57.7197 76.2333 59.9458 72.152 59.9458 66.4631C59.9458 63.7423 59.3275 61.5162 58.2144 59.6611C56.9777 57.806 55.2463 56.3219 52.7728 55.0852C50.2993 53.8484 47.8259 52.9827 45.3524 52.2407C42.879 51.4986 39.5398 50.6329 35.5823 49.7672C34.9639 49.6435 34.5929 49.5199 34.3455 49.3962C25.1937 47.4174 19.2574 45.686 16.5366 44.4493C7.8795 40.7391 3.67462 34.4318 3.67462 25.2799C3.67462 16.8702 6.76644 10.6865 12.9501 6.48164C19.1337 2.27675 26.6778 0.174316 35.4586 0.174316C45.1051 0.174316 52.8965 2.5241 58.5854 7.10001C64.3981 11.7996 67.4899 18.6016 67.8609 27.7534Z" fill="white"/>
</svg>
